<svg xmlns="http://www.w3.org/2000/svg" viewBox="0 0 570.23 153.85"><defs><style>.cls-1{fill:#f90;}.cls-1,.cls-3{fill-rule:evenodd;}.cls-2{stroke:#000;}.cls-4{fill:#050505;}.cls-5{fill:#211c1d;}</style></defs><title>Asset 1</title><g id="Layer_2" data-name="Layer 2"><g id="Layer_2-2" data-name="Layer 2"><polygon class="cls-1" points="50.52 145.64 27.46 137.37 27.46 103.56 50.52 111.42 50.52 145.64"/><polygon class="cls-1" points="54.76 145.64 77.82 137.37 77.82 103.56 54.76 111.42 54.76 145.64"/><polygon class="cls-1" points="29.83 101.03 53.17 94.46 74.82 101.44 53.17 108.79 29.83 101.03"/><polygon class="cls-1" points="23.07 98.41 0 90.14 0 56.33 23.07 64.19 23.07 98.41"/><polygon class="cls-1" points="27.3 98.41 50.36 90.14 50.36 56.33 27.3 64.19 27.3 98.41"/><polygon class="cls-1" points="2.37 53.8 25.71 47.23 47.36 54.21 25.71 61.56 2.37 53.8"/><polygon class="cls-1" points="76.89 98.41 53.82 90.14 53.82 56.33 76.89 64.19 76.89 98.41"/><polygon class="cls-1" points="81.11 98.41 104.18 90.14 104.18 56.33 81.11 64.19 81.11 98.41"/><polygon class="cls-1" points="56.19 53.8 79.53 47.23 101.18 54.21 79.53 61.56 56.19 53.8"/><polygon class="cls-1" points="104.34 51.18 81.28 42.91 81.28 9.1 104.34 16.96 104.34 51.18"/><polygon class="cls-1" points="108.58 51.18 131.64 42.91 131.64 9.1 108.58 16.96 108.58 51.18"/><polygon class="cls-1" points="83.65 6.57 106.99 0 128.64 6.98 106.99 14.33 83.65 6.57"/><polygon class="cls-1" points="158.16 51.18 135.1 42.91 135.1 9.1 158.16 16.96 158.16 51.18"/><polygon class="cls-1" points="162.4 51.18 185.46 42.91 185.46 9.1 162.4 16.96 162.4 51.18"/><polygon class="cls-1" points="137.47 6.57 160.81 0 182.46 6.98 160.81 14.33 137.47 6.57"/><path class="cls-2" d="M146.43,123.62l-7.75,26.92h-3.37l-6-20-5.53,20h-3.43l-8.05-26.92h4.16l5.86,20.06,5.58-20.06H131L137,143.74l6-20.12Z"/><path class="cls-2" d="M167.86,142.5l3.9.8a11,11,0,0,1-4.15,5.71,12,12,0,0,1-7.26,2.26,11.29,11.29,0,0,1-8.91-3.88q-3.41-3.88-3.4-10.18t3.54-10.39a11.41,11.41,0,0,1,8.89-4,10.73,10.73,0,0,1,8.47,3.65q3.21,3.65,3.29,10.91H152.68q0,6.11,2.55,8.24a8.3,8.3,0,0,0,5.4,2.13Q165.76,147.8,167.86,142.5Zm-.23-8.19a11.68,11.68,0,0,0-.74-4,6.86,6.86,0,0,0-2.34-3,6.41,6.41,0,0,0-4-1.24,7.07,7.07,0,0,0-5.28,2.24,9.27,9.27,0,0,0-2.43,6Z"/><path class="cls-2" d="M179.75,150.53h-2V114.19h4.19V128.1q2.87-5.23,7.92-5.23a9.79,9.79,0,0,1,7.75,3.66q3.12,3.65,3.12,10.62a16.23,16.23,0,0,1-3.07,10.07,9.57,9.57,0,0,1-8,4.07q-5.48,0-8.41-5.2ZM181.92,140q.29,4.15,2.54,6a7.33,7.33,0,0,0,4.75,1.87,6,6,0,0,0,5.15-2.77,13,13,0,0,0,2-7.6q0-5.2-1.89-8.17a5.91,5.91,0,0,0-5.24-3,6.57,6.57,0,0,0-4.75,2.12,9,9,0,0,0-2.52,5.47Z"/><path class="cls-2" d="M211.4,143.56l4-.83q1.33,5.07,8.42,5.07a8,8,0,0,0,4.42-1.17,3.71,3.71,0,0,0,1.81-3.3q0-3.16-4.61-4l-5.67-1.08a10.35,10.35,0,0,1-5.3-2.51,6.48,6.48,0,0,1-2-4.93,7.13,7.13,0,0,1,2.69-5.66,10.83,10.83,0,0,1,7.24-2.28q8.76,0,10.81,6.85l-3.84.83q-1.65-4.19-6.78-4.19a7.65,7.65,0,0,0-4.19,1,3.3,3.3,0,0,0-1.64,2.93q0,3,4.18,3.74l5.24,1q8.23,1.49,8.23,8a7.12,7.12,0,0,1-3.06,6,13.32,13.32,0,0,1-8.15,2.28Q213.66,151.28,211.4,143.56Z"/><path class="cls-2" d="M256.75,142.5l3.9.8A11,11,0,0,1,256.5,149a11.94,11.94,0,0,1-7.26,2.26,11.28,11.28,0,0,1-8.91-3.88q-3.41-3.88-3.41-10.18t3.54-10.39a11.41,11.41,0,0,1,8.89-4,10.73,10.73,0,0,1,8.47,3.65q3.21,3.65,3.29,10.91H241.57q0,6.11,2.55,8.24a8.3,8.3,0,0,0,5.4,2.13Q254.65,147.8,256.75,142.5Zm-.23-8.19a11.7,11.7,0,0,0-.74-4,6.87,6.87,0,0,0-2.34-3,6.41,6.41,0,0,0-4-1.24,7.07,7.07,0,0,0-5.28,2.24,9.26,9.26,0,0,0-2.43,6Z"/><path class="cls-2" d="M269.8,150.53h-4.19V123.62h3.67v6.27q1.94-4.41,3.9-5.71a7.13,7.13,0,0,1,4-1.31q.64,0,1.65.1v4H278a7.36,7.36,0,0,0-5.74,2.57,10.4,10.4,0,0,0-2.45,6.75Z"/><path class="cls-2" d="M304.89,123.62l-9.29,26.92h-4.35l-9.6-26.92h4.64l7.47,21.88,7.41-21.88Z"/><path class="cls-2" d="M312.72,114.19v4.65h-4.49v-4.65Zm-.1,9.43v26.92h-4.19V123.62Z"/><path class="cls-2" d="M334.53,141.11l3.77.66a12,12,0,0,1-3.54,7,10.69,10.69,0,0,1-15.32-1.58,16.89,16.89,0,0,1-2.92-10,16.44,16.44,0,0,1,3.08-10.2,9.93,9.93,0,0,1,8.37-4.07,9.56,9.56,0,0,1,7,2.63,11.79,11.79,0,0,1,3.29,6.79l-3.77.72q-1.06-6.66-6.44-6.66a5.94,5.94,0,0,0-5.32,2.94,14.06,14.06,0,0,0-1.86,7.63q0,5.17,1.85,8a5.86,5.86,0,0,0,5.2,2.86Q333.15,147.8,334.53,141.11Z"/><path class="cls-2" d="M362,142.5l3.9.8A11,11,0,0,1,361.7,149a11.94,11.94,0,0,1-7.26,2.26,11.29,11.29,0,0,1-8.91-3.88q-3.41-3.88-3.41-10.18t3.54-10.39a11.41,11.41,0,0,1,8.89-4,10.73,10.73,0,0,1,8.47,3.65q3.21,3.65,3.29,10.91H346.77q0,6.11,2.55,8.24a8.3,8.3,0,0,0,5.4,2.13Q359.85,147.8,362,142.5Zm-.23-8.19a11.68,11.68,0,0,0-.75-4,6.86,6.86,0,0,0-2.34-3,6.41,6.41,0,0,0-4-1.24,7.07,7.07,0,0,0-5.28,2.24,9.25,9.25,0,0,0-2.43,6Z"/><path class="cls-2" d="M368.67,143.56l4-.83q1.33,5.07,8.42,5.07a8,8,0,0,0,4.42-1.17,3.71,3.71,0,0,0,1.81-3.3q0-3.16-4.61-4l-5.67-1.08a10.35,10.35,0,0,1-5.3-2.51,6.48,6.48,0,0,1-2-4.93,7.13,7.13,0,0,1,2.69-5.66,10.83,10.83,0,0,1,7.24-2.28q8.76,0,10.81,6.85l-3.84.83q-1.65-4.19-6.78-4.19a7.65,7.65,0,0,0-4.19,1,3.3,3.3,0,0,0-1.64,2.93q0,3,4.18,3.74l5.24,1q8.23,1.49,8.23,8a7.12,7.12,0,0,1-3.06,6,13.32,13.32,0,0,1-8.15,2.28Q370.94,151.28,368.67,143.56Z"/><path class="cls-3" d="M274.16,66.09V59.63A1.6,1.6,0,0,1,275.8,58h29a1.62,1.62,0,0,1,1.67,1.63v5.54c0,.93-.79,2.14-2.18,4.07l-15,21.43c5.57-.13,11.47.7,16.53,3.55a3,3,0,0,1,1.54,2.52v6.9c0,1-1,2.05-2.13,1.48a33.38,33.38,0,0,0-30.62.06c-1,.54-2.06-.55-2.06-1.5V97.11a7.8,7.8,0,0,1,1.08-4.44L291,67.72H275.83A1.61,1.61,0,0,1,274.16,66.09Z"/><path class="cls-3" d="M170.45,106.47h-8.82a1.66,1.66,0,0,1-1.58-1.49V59.74a1.66,1.66,0,0,1,1.7-1.63H170a1.66,1.66,0,0,1,1.6,1.52v5.91h.16c2.14-5.71,6.17-8.38,11.6-8.38s9,2.67,11.44,8.38a13,13,0,0,1,22.38-3.43c2.8,3.81,2.22,9.33,2.22,14.19v28.55a1.66,1.66,0,0,1-1.7,1.63h-8.81a1.66,1.66,0,0,1-1.58-1.62v-24c0-1.9.16-6.67-.25-8.47-.66-3-2.63-3.9-5.18-3.9a5.85,5.85,0,0,0-5.27,3.71c-.91,2.29-.82,6.09-.82,8.66v24a1.66,1.66,0,0,1-1.7,1.63h-8.81a1.66,1.66,0,0,1-1.58-1.62v-24c0-5,.82-12.47-5.43-12.47s-6.09,7.24-6.09,12.47v24A1.66,1.66,0,0,1,170.45,106.47Z"/><path class="cls-3" d="M327.73,57.15c13,0,20,11.24,20,25.52,0,13.81-7.75,24.76-20,24.76-12.74,0-19.67-11.24-19.67-25.23S315.08,57.15,327.73,57.15Zm.08,10.4c-6.45,0-6.86,8.85-6.86,14.38s-.08,16.16,6.78,16.16,7.1-8.36,7.1-14.16c0-3.81-.16-8.38-1.31-12C332.55,68.79,330.59,67.55,327.82,67.55Z"/><path class="cls-3" d="M366.52,106.47h-8.78a1.66,1.66,0,0,1-1.58-1.62V59.58a1.67,1.67,0,0,1,1.69-1.48H366a1.68,1.68,0,0,1,1.57,1.27v6.92h.17c2.47-6.19,5.92-9.14,12-9.14A11.56,11.56,0,0,1,390,62.49c2.3,3.62,2.3,9.71,2.3,14.09V105a1.67,1.67,0,0,1-1.69,1.43h-8.84a1.66,1.66,0,0,1-1.57-1.43V80.48c0-5,.58-12.19-5.51-12.19a5.77,5.77,0,0,0-5.1,3.62,20.11,20.11,0,0,0-1.4,8.57v24.36A1.69,1.69,0,0,1,366.52,106.47Z"/><path class="cls-3" d="M252.06,84.87c0,3.44.08,6.3-1.65,9.35a7.16,7.16,0,0,1-6.1,4c-3.38,0-5.36-2.58-5.36-6.39,0-7.51,6.74-8.87,13.11-8.87Zm8.89,21.49a1.82,1.82,0,0,1-2.08.21,21.52,21.52,0,0,1-5.05-5.87c-4.84,4.93-8.27,6.41-14.54,6.41-7.42,0-13.2-4.58-13.2-13.74a15,15,0,0,1,9.4-14.41c4.78-2.1,11.46-2.48,16.58-3.05V74.75c0-2.1.17-4.58-1.07-6.39A5.89,5.89,0,0,0,246,66.07c-3.36,0-6.35,1.72-7.09,5.29A1.86,1.86,0,0,1,237.42,73l-8.54-.92a1.55,1.55,0,0,1-1.32-1.84c2-10.37,11.33-13.5,19.71-13.5,4.29,0,9.9,1.14,13.28,4.39,4.29,4,3.88,9.35,3.88,15.17V90c0,4.13,1.72,5.94,3.33,8.17a1.66,1.66,0,0,1,0,2.34c-1.8,1.51-5,4.29-6.76,5.86Z"/><path class="cls-3" d="M137.49,84.87c0,3.44.08,6.3-1.65,9.35a7.16,7.16,0,0,1-6.1,4c-3.38,0-5.36-2.58-5.36-6.39,0-7.51,6.74-8.87,13.11-8.87Zm8.89,21.49a1.82,1.82,0,0,1-2.08.21,21.51,21.51,0,0,1-5.05-5.87c-4.84,4.93-8.27,6.41-14.53,6.41-7.42,0-13.2-4.58-13.2-13.74a15,15,0,0,1,9.4-14.41c4.78-2.1,11.46-2.48,16.58-3.05V74.75c0-2.1.16-4.58-1.07-6.39a5.89,5.89,0,0,0-4.95-2.29c-3.36,0-6.35,1.72-7.09,5.29A1.86,1.86,0,0,1,122.85,73l-8.54-.92A1.55,1.55,0,0,1,113,70.21c2-10.37,11.32-13.5,19.71-13.5,4.29,0,9.9,1.14,13.28,4.39,4.29,4,3.88,9.35,3.88,15.17V90c0,4.13,1.72,5.94,3.33,8.17a1.66,1.66,0,0,1,0,2.34c-1.8,1.51-5,4.29-6.76,5.86Z"/><g id="FKDYOl.tif"><path class="cls-4" d="M435.5,113.34,450.85,106c.42.39.72.53.77.75,3.67,13.39,15.17,19,28.11,13.67a12.93,12.93,0,0,0,2.81-1.47c3.16-2.35,5.12-5.36,4.72-9.49s-3.16-6-6.51-7.26c-6.7-2.57-13.83-3.64-20.67-5.73-7.45-2.28-14.63-5.08-19.05-12.1-6.83-10.84-4-24.84,7.32-30.69,14.77-7.62,30-7.28,44.44,1.4,4.43,2.66,7,7.07,8.34,12.26l-16,7.5c-4.4-11.77-16.92-15.87-27.75-9.17-4.57,2.83-4.43,8.44.41,11.29s10.15,3.79,15.4,5.15a134.66,134.66,0,0,1,14.49,4.36c10.52,4,16.52,11.45,16.87,21.4.41,11.51-4.4,20.5-14.91,25C476.4,138.41,462.6,138,449.4,132,442.28,128.72,438,122.33,435.5,113.34Z"/><path class="cls-4" d="M533.71,96.16V83.84c1.79-1,3.85-.26,5.79-.64,6.61-1.29,10.15-5.29,9.89-11.43a8.83,8.83,0,0,0-8.2-8.71c-5.56-.61-10.23,2.94-11.88,9-.17.61-.26,1.24-.47,2.23l-15-2.37c1.05-7.89,4.49-14,11-18.2,10.37-6.65,26.31-4.95,35.15,3.52s8,22.11-2.05,29.35c-1.07.77-2.18,1.5-3.48,2.4a67.12,67.12,0,0,1,6.47,3.21c9.59,6.1,12.25,19,5.89,29.63s-16.39,15-28.35,14.18c-11.53-.84-20.45-6.27-24.69-17.72a29.79,29.79,0,0,1-1-3.84,17,17,0,0,1-.17-2.24L528,110.52c3.25,9.66,8.11,13.49,15.13,12.08,6.13-1.22,10.5-7.56,10-14.43C552.46,100.27,546.84,96.75,533.71,96.16Z"/><path class="cls-5" d="M418.07,153.85h-3.56V26.49c1-.71,2.21-.25,3.56-.25Z"/></g></g></g></svg>